# xmcd CD database file
#
# Track frame offsets:
#	150
#	16390
#	35173
#	50410
#	64742
#	82388
#	99484
#	111625
#	129701
#	147457
#	158720
#	173107
#	186753
#	200035
#
# Disc length: 2854 seconds
#
# Revision: 0
# Processed by: cddbd v1.4PL0 Copyright (c) Steve Scherf et al.
# Submitted via: CDex 1.50beta10
#
DISCID=d60b240e
DTITLE=Nina Simone - Hits
DYEAR=1900
DGENRE=Blues
TTITLE0=Ne me quites pas
TTITLE1=I loves you, Porgy
TTITLE2=Love me or leave me
TTITLE3=He's got the whole world in his hand
TTITLE4=House of the rising sun
TTITLE5=Solitude
TTITLE6=Trouble in mind
TTITLE7=Blues for mama
TTITLE8=I shall be released
TTITLE9=he needs me
TTITLE10=Don't smoke in bed
TTITLE11=I like the sunrise
TTITLE12=Something to live for
TTITLE13=Black is the color (of my true love's hair)
EXTD=
EXTT0=
EXTT1=
EXTT2=
EXTT3=
EXTT4=
EXTT5=
EXTT6=
EXTT7=
EXTT8=
EXTT9=
EXTT10=
EXTT11=
EXTT12=
EXTT13=
PLAYORDER=
